<svg xmlns="http://www.w3.org/2000/svg" width="467" height="88" viewBox="0 0 467 88">
  <g id="Group_168" data-name="Group 168" transform="translate(4275 2675)">
    <text id="The_Online_Learning_Corporation" data-name="The Online Learning 
Corporation" transform="translate(-4157 -2634)" fill="#ffc015" font-size="38" font-family="NeuzeitGro-Bol, Neuzeit Grotesk"><tspan x="0" y="0">The Online Learning </tspan><tspan x="0" y="32">Corporation</tspan></text>
    <g id="Page-1" transform="translate(-4253.424 -2660)">
      <g id="_026---Idea" data-name="026---Idea">
        <path id="Shape" d="M55.143,30.953A2,2,0,0,0,53.18,29.33H51.249l-.142-.851a2.01,2.01,0,0,0-1.671-1.657c-.19-.03-.382-.05-.571-.076a6.1,6.1,0,0,0-.76-4.459,4.092,4.092,0,0,0-2.965-5.474,8.509,8.509,0,0,0-8.313-6.946c-.1,0-.189.013-.284.016a4.068,4.068,0,0,0-6.223-.774A6.864,6.864,0,0,0,26.586,8a6.943,6.943,0,0,0-5.458,2.688,4.981,4.981,0,0,0-6.366,4.476,4.116,4.116,0,0,0-2.521,3.792,4.067,4.067,0,0,0,.1.853,8.048,8.048,0,0,0-.959,6.9c-.268.037-.542.07-.8.108A2.012,2.012,0,0,0,8.9,28.473l-.142.854H6.82a2,2,0,0,0-1.962,1.619L.479,53.428A3,3,0,0,0,3.43,57H24.284c.828,1.366,3.344,2,5.716,2,2.347,0,4.839-.619,5.691-2H56.57a3,3,0,0,0,2.951-3.571ZM15.265,20.766a2.112,2.112,0,0,1,1.08-3.922,2.074,2.074,0,0,1,1.679.848A1,1,0,0,0,19.63,16.5a4.04,4.04,0,0,0-2.836-1.6,3.04,3.04,0,0,1,2.965-2.407,3.117,3.117,0,0,1,.364.04,6.569,6.569,0,0,0-.21.626,1,1,0,0,0,1.936.5,4.863,4.863,0,0,1,.519-1.252A4.938,4.938,0,0,1,26.586,10a4.857,4.857,0,0,1,2.649.8A4.065,4.065,0,0,0,29,12.111a1,1,0,0,0,2,0,2.1,2.1,0,0,1,4.207,0,1,1,0,1,0,2,0c0-.077-.019-.15-.023-.227a6.491,6.491,0,0,1,5.922,5.006,4.058,4.058,0,0,0-1.294.645,1,1,0,0,0,1.2,1.6A2.108,2.108,0,0,1,46.1,21.862a2.133,2.133,0,0,1-.947.876,1,1,0,0,0,.426,1.9.987.987,0,0,0,.424-.095,4.107,4.107,0,0,0,.747-.467,4.271,4.271,0,0,1-.846,4.265l-.024.025a4.319,4.319,0,0,1-5.1.936A3.969,3.969,0,0,1,40.3,29a3.406,3.406,0,0,0,.264-3.52,1,1,0,1,0-1.787.9,1.489,1.489,0,0,1-.482,1.885,1.509,1.509,0,0,1-2.172-.554,1,1,0,0,0-1.789.9,3.467,3.467,0,0,0,3.116,1.928,3.43,3.43,0,0,0,1.255-.247,5.919,5.919,0,0,0,1.172.8,6.16,6.16,0,0,0,4.619.427,6.374,6.374,0,0,1-4.118,2.525,1,1,0,0,0,.157,1.987,1.064,1.064,0,0,0,.159-.012,8.218,8.218,0,0,0,1.774-.518,8.942,8.942,0,0,1,.746,1.717,1.031,1.031,0,0,1,.052.323,1.079,1.079,0,0,1-.656.992,1.132,1.132,0,0,1-1.291-.347,6.383,6.383,0,0,0-2.927-1.945c-2.161-.724-2.995-1.371-3.349-2.075a9.6,9.6,0,0,0,1.533-.32,1,1,0,1,0-.588-1.912,7.578,7.578,0,0,1-1.726.317,7.422,7.422,0,0,1-3.314-.5,1,1,0,0,0-1.121.279,4.282,4.282,0,0,1-6.906-5.007A1,1,0,0,0,21.2,25.987a6.245,6.245,0,0,0-.572,1.287A1.5,1.5,0,0,1,19.207,25.8v-.025a.989.989,0,0,0-1-.987,1.01,1.01,0,0,0-1,1.012,3.48,3.48,0,0,0,3.1,3.451,6.278,6.278,0,0,0,.091,1,6.111,6.111,0,0,1-6.914-8.369,4.031,4.031,0,0,0,.744.593,1,1,0,0,0,1.032-1.713Zm-4.4,8.033c.461-.068.937-.128,1.41-.19a8.074,8.074,0,0,0,8.77,3.558,6.264,6.264,0,0,0,9.812,1.663,9.6,9.6,0,0,0,2.087.378c.483,1.832,1.879,2.942,4.812,3.925a4.432,4.432,0,0,1,2.036,1.341,3.185,3.185,0,0,0,2.416,1.135,3.037,3.037,0,0,0,1.187-.242,3.079,3.079,0,0,0,1.869-2.831,2.967,2.967,0,0,0-.152-.946,10.931,10.931,0,0,0-.884-2.035,8.43,8.43,0,0,0,3.323-5.082,6.264,6.264,0,0,0,.576-.806c.335.043.67.081,1.007.137l3.61,21.714a34.326,34.326,0,0,0-21.744,0V38a1,1,0,0,0-2,0V50.522a34.332,34.332,0,0,0-21.744-.008ZM2.651,54.632a.992.992,0,0,1-.21-.82L6.82,31.33h1.6L5.282,50.189a2.007,2.007,0,0,0,2.581,2.234A33.455,33.455,0,0,1,24.38,51.375L24.082,55H3.43a1.007,1.007,0,0,1-.779-.368ZM30,57c-2.409,0-3.791-.712-3.994-1.029l.344-4.15A21.37,21.37,0,0,1,29.568,52.9,1.009,1.009,0,0,0,30,53a.994.994,0,0,0,.433-.1,21.3,21.3,0,0,1,3.217-1.086l.344,4.156C33.791,56.288,32.409,57,30,57Zm27.349-2.368A1.007,1.007,0,0,1,56.57,55H35.921l-.3-3.632a33.465,33.465,0,0,1,16.524,1.057,2.006,2.006,0,0,0,2.572-2.239L51.582,31.331h1.6l4.38,22.48a.992.992,0,0,1-.213.821Z" fill="#ffc015"/>
        <path id="Shape-2" data-name="Shape" d="M26.686,22.685a1,1,0,0,0-.071,1.412,6.03,6.03,0,0,0,3.2,1.848A2.979,2.979,0,0,1,27.386,27.2a1,1,0,0,0,0,2,4.959,4.959,0,0,0,4.659-3.207,6.035,6.035,0,0,0,4.937-4.8,1,1,0,1,0-1.964-.376,3.986,3.986,0,0,1-1.656,2.539,4.082,4.082,0,0,1-5.264-.6,1,1,0,0,0-1.412-.071Z" fill="#ffc015"/>
        <path id="Shape-3" data-name="Shape" d="M23.2,21.6a1,1,0,0,0,1-1A2.6,2.6,0,0,1,26.8,18a1,1,0,0,0,0-2,4.605,4.605,0,0,0-4.6,4.6,1,1,0,0,0,1,1Z" fill="#ffc015"/>
        <path id="Shape-4" data-name="Shape" d="M31,2V1a1,1,0,0,0-2,0V2a1,1,0,0,0,2,0Z" fill="#ffc015"/>
        <path id="Shape-5" data-name="Shape" d="M46.41,7.176l-1,1A1,1,0,1,0,46.824,9.59l1-1A1,1,0,1,0,46.41,7.176Z" fill="#ffc015"/>
        <path id="Shape-6" data-name="Shape" d="M13.883,9.883a1,1,0,0,0,.707-1.707l-1-1A1,1,0,1,0,12.176,8.59l1,1a1,1,0,0,0,.707.293Z" fill="#ffc015"/>
        <path id="Shape-7" data-name="Shape" d="M21.581,5.675a1.014,1.014,0,0,0,.383-.076A1,1,0,0,0,22.5,4.292L21.356,1.52a1,1,0,1,0-1.847.766l1.148,2.772a1,1,0,0,0,.924.617Z" fill="#ffc015"/>
        <path id="Shape-8" data-name="Shape" d="M39.95.979a1,1,0,0,0-1.306.541L37.5,4.292A1,1,0,0,0,38.036,5.6a1.014,1.014,0,0,0,.383.076,1,1,0,0,0,.924-.617l1.148-2.772A1,1,0,0,0,39.95.979Z" fill="#ffc015"/>
        <path id="Shape-9" data-name="Shape" d="M50.325,17.582a1,1,0,0,0,.383-.077l2.771-1.148a1,1,0,1,0-.765-1.848l-2.772,1.148a1,1,0,0,0,.383,1.925Z" fill="#ffc015"/>
        <path id="Shape-10" data-name="Shape" d="M9.292,17.5a1,1,0,0,0,.766-1.848L7.286,14.509a1,1,0,1,0-.765,1.848Z" fill="#ffc015"/>
      </g>
    </g>
    <g id="Rectangle_486" data-name="Rectangle 486" transform="translate(-4275 -2675)" fill="none" stroke="#ffc015" stroke-width="1">
      <rect width="103" height="88" stroke="none"/>
      <rect x="0.5" y="0.5" width="102" height="87" fill="none"/>
    </g>
  </g>
</svg>
